<?xml version="1.0" encoding="UTF-8"?>
<!DOCTYPE svg PUBLIC "-//W3C//DTD SVG 1.1//EN" "http://www.w3.org/Graphics/SVG/1.1/DTD/svg11.dtd">
<svg xmlns="http://www.w3.org/2000/svg" version="1.1" width="300px" height="300px" style="shape-rendering:geometricPrecision; text-rendering:geometricPrecision; image-rendering:optimizeQuality; fill-rule:evenodd; clip-rule:evenodd" xmlns:xlink="http://www.w3.org/1999/xlink">
<g><path style="opacity:0.989" fill="#010101" d="M 141.5,3.5 C 202.439,2.68438 248.272,28.351 279,80.5C 298.711,120.922 300.711,162.256 285,204.5C 254.497,267.846 203.997,297.346 133.5,293C 70.1747,282.592 29.0081,246.759 10,185.5C -2.88946,125.176 13.9439,75.0096 60.5,35C 84.477,16.6764 111.477,6.17637 141.5,3.5 Z"/></g>
<g><path style="opacity:1" fill="#f7f6f7" d="M 196.5,85.5 C 204.5,85.5 212.5,85.5 220.5,85.5C 224.579,86.7552 228.579,88.4218 232.5,90.5C 240.948,94.9489 246.948,101.616 250.5,110.5C 250.5,110.833 250.5,111.167 250.5,111.5C 246.151,114.341 241.484,116.674 236.5,118.5C 236.672,117.508 236.338,116.842 235.5,116.5C 232.347,109.848 227.347,105.015 220.5,102C 201.176,96.4125 188.009,102.913 181,121.5C 180.188,125.689 180.355,129.689 181.5,133.5C 181.5,133.833 181.5,134.167 181.5,134.5C 176.167,135.5 170.833,136.5 165.5,137.5C 162.709,118.512 168.709,103.179 183.5,91.5C 184.609,91.4431 185.609,91.1098 186.5,90.5C 188.875,89.0983 191.209,87.765 193.5,86.5C 194.791,86.7373 195.791,86.404 196.5,85.5 Z"/></g>
<g><path style="opacity:1" fill="#851c3b" d="M 243.5,85.5 C 243.5,85.8333 243.5,86.1667 243.5,86.5C 238.489,86.3341 233.489,86.5007 228.5,87C 234.67,88.3676 240.67,89.8676 246.5,91.5C 242.121,91.0779 237.788,90.4112 233.5,89.5C 232.893,89.6236 232.56,89.9569 232.5,90.5C 228.579,88.4218 224.579,86.7552 220.5,85.5C 228.038,84.2179 235.705,84.2179 243.5,85.5 Z"/></g>
<g><path style="opacity:1" fill="#73163d" d="M 196.5,85.5 C 195.791,86.404 194.791,86.7373 193.5,86.5C 185.517,87.1655 177.517,87.4988 169.5,87.5C 178.288,85.9698 187.288,85.3032 196.5,85.5 Z"/></g>
<g><path style="opacity:1" fill="#480719" d="M 243.5,86.5 C 243.5,86.1667 243.5,85.8333 243.5,85.5C 249.532,85.1255 255.198,86.1255 260.5,88.5C 254.82,87.9421 249.153,87.2755 243.5,86.5 Z"/></g>
<g><path style="opacity:1" fill="#b82566" d="M 193.5,86.5 C 191.209,87.765 188.875,89.0983 186.5,90.5C 186.265,89.9033 185.765,89.5699 185,89.5C 178.188,90.3319 171.355,90.9986 164.5,91.5C 161.482,91.6646 158.482,91.498 155.5,91C 160.341,90.0877 165.008,88.921 169.5,87.5C 177.517,87.4988 185.517,87.1655 193.5,86.5 Z"/></g>
<g><path style="opacity:1" fill="#c41951" d="M 243.5,86.5 C 249.153,87.2755 254.82,87.9421 260.5,88.5C 264.974,88.9924 268.974,90.659 272.5,93.5C 264.121,90.6032 255.454,89.1032 246.5,89C 249.792,91.3107 253.458,92.4774 257.5,92.5C 259.158,95.0308 260.158,97.8641 260.5,101C 260.392,102.681 259.725,103.848 258.5,104.5C 259.519,102.46 259.519,100.46 258.5,98.5C 255.101,95.134 251.101,92.8006 246.5,91.5C 240.67,89.8676 234.67,88.3676 228.5,87C 233.489,86.5007 238.489,86.3341 243.5,86.5 Z"/></g>
<g><path style="opacity:1" fill="#0c0404" d="M 232.5,90.5 C 232.56,89.9569 232.893,89.6236 233.5,89.5C 237.788,90.4112 242.121,91.0779 246.5,91.5C 251.101,92.8006 255.101,95.134 258.5,98.5C 259.519,100.46 259.519,102.46 258.5,104.5C 256.098,106.909 253.431,108.909 250.5,110.5C 246.948,101.616 240.948,94.9489 232.5,90.5 Z"/></g>
<g><path style="opacity:1" fill="#99225f" d="M 169.5,87.5 C 165.008,88.921 160.341,90.0877 155.5,91C 158.482,91.498 161.482,91.6646 164.5,91.5C 159.78,92.2105 155.113,93.2105 150.5,94.5C 148.167,94.5 145.833,94.5 143.5,94.5C 143.402,92.4471 144.069,90.7804 145.5,89.5C 153.451,88.3204 161.451,87.6537 169.5,87.5 Z"/></g>
<g><path style="opacity:1" fill="#370b1d" d="M 186.5,90.5 C 185.609,91.1098 184.609,91.4431 183.5,91.5C 172.489,92.4066 161.489,93.4066 150.5,94.5C 155.113,93.2105 159.78,92.2105 164.5,91.5C 171.355,90.9986 178.188,90.3319 185,89.5C 185.765,89.5699 186.265,89.9033 186.5,90.5 Z"/></g>
<g><path style="opacity:1" fill="#050404" d="M 183.5,91.5 C 168.709,103.179 162.709,118.512 165.5,137.5C 163.833,137.5 162.167,137.5 160.5,137.5C 157.603,125.27 149.937,118.27 137.5,116.5C 136.167,115.833 134.833,115.167 133.5,114.5C 136.65,107.702 139.983,101.035 143.5,94.5C 145.833,94.5 148.167,94.5 150.5,94.5C 161.489,93.4066 172.489,92.4066 183.5,91.5 Z"/></g>
<g><path style="opacity:1" fill="#f8f7f8" d="M 145.5,89.5 C 144.069,90.7804 143.402,92.4471 143.5,94.5C 139.983,101.035 136.65,107.702 133.5,114.5C 132.957,114.56 132.624,114.893 132.5,115.5C 134.045,116.452 135.712,116.785 137.5,116.5C 149.937,118.27 157.603,125.27 160.5,137.5C 155.468,140.114 150.135,140.781 144.5,139.5C 141.701,132.767 136.701,130.267 129.5,132C 124.935,134.056 122.602,137.556 122.5,142.5C 117.604,144.446 112.271,145.113 106.5,144.5C 106.344,140.418 106.844,136.418 108,132.5C 113.452,121.264 118.619,109.931 123.5,98.5C 124.537,97.0697 125.204,95.403 125.5,93.5C 126.933,91.4809 128.267,89.3143 129.5,87C 135.167,86.3333 140.833,86.3333 146.5,87C 145.748,87.6708 145.414,88.5041 145.5,89.5 Z"/></g>
<g><path style="opacity:1" fill="#060405" d="M 123.5,98.5 C 118.619,109.931 113.452,121.264 108,132.5C 106.844,136.418 106.344,140.418 106.5,144.5C 104.833,144.5 103.167,144.5 101.5,144.5C 101.635,136.271 98.6347,129.438 92.5,124C 89.0971,121.991 85.7638,119.991 82.5,118C 84.1394,113.885 86.1394,110.051 88.5,106.5C 100.06,103.36 111.726,100.693 123.5,98.5 Z"/></g>
<g><path style="opacity:1" fill="#872665" d="M 125.5,93.5 C 125.204,95.403 124.537,97.0697 123.5,98.5C 111.726,100.693 100.06,103.36 88.5,106.5C 88.7549,104.033 89.7549,102.033 91.5,100.5C 91.4346,100.938 91.6012,101.272 92,101.5C 102.907,97.8151 114.074,95.1484 125.5,93.5 Z"/></g>
<g><path style="opacity:1" fill="#050404" d="M 235.5,116.5 C 235.586,117.496 235.252,118.329 234.5,119C 231.524,119.705 228.858,120.871 226.5,122.5C 217.1,125.216 207.767,127.882 198.5,130.5C 192.861,131.66 187.195,132.66 181.5,133.5C 180.355,129.689 180.188,125.689 181,121.5C 188.009,102.913 201.176,96.4125 220.5,102C 227.347,105.015 232.347,109.848 235.5,116.5 Z"/></g>
<g><path style="opacity:1" fill="#8d1332" d="M 276.5,95.5 C 279.353,98.5503 280.187,102.217 279,106.5C 278.623,107.942 277.79,108.942 276.5,109.5C 277.673,104.858 277.673,100.191 276.5,95.5 Z"/></g>
<g><path style="opacity:1" fill="#830d31" d="M 258.5,104.5 C 257.585,106.754 256.252,108.754 254.5,110.5C 253.292,111.234 251.959,111.567 250.5,111.5C 250.5,111.167 250.5,110.833 250.5,110.5C 253.431,108.909 256.098,106.909 258.5,104.5 Z"/></g>
<g><path style="opacity:1" fill="#f7f7f7" d="M 91.5,100.5 C 89.7549,102.033 88.7549,104.033 88.5,106.5C 86.1394,110.051 84.1394,113.885 82.5,118C 85.7638,119.991 89.0971,121.991 92.5,124C 98.6347,129.438 101.635,136.271 101.5,144.5C 96.3595,145.488 91.0262,145.821 85.5,145.5C 86.4643,137.293 82.7976,132.793 74.5,132C 69.8452,131.501 65.1785,131.334 60.5,131.5C 62.5507,125.73 64.8841,120.063 67.5,114.5C 69.0075,112.819 70.0075,110.819 70.5,108.5C 72.2927,106.574 73.2927,104.241 73.5,101.5C 64.1667,101.5 54.8333,101.5 45.5,101.5C 45.5,96.5 45.5,91.5 45.5,86.5C 62.8461,86.1672 80.1795,86.5005 97.5,87.5C 94.7282,91.4845 92.7282,95.8178 91.5,100.5 Z"/></g>
<g><path style="opacity:1" fill="#040204" d="M 67.5,114.5 C 64.8841,120.063 62.5507,125.73 60.5,131.5C 65.1785,131.334 69.8452,131.501 74.5,132C 82.7976,132.793 86.4643,137.293 85.5,145.5C 77.5,145.5 69.5,145.5 61.5,145.5C 61.5,143.833 61.5,142.167 61.5,140.5C 56.3595,139.512 51.0262,139.179 45.5,139.5C 45.5,140.5 45.5,141.5 45.5,142.5C 44.8333,142.5 44.1667,142.5 43.5,142.5C 41.7698,140.921 39.9364,139.254 38,137.5C 37.1859,135.098 37.3526,132.765 38.5,130.5C 46.5423,122.31 56.209,116.977 67.5,114.5 Z"/></g>
<g><path style="opacity:1" fill="#ef0b56" d="M 272.5,93.5 C 273.605,94.6005 274.938,95.2671 276.5,95.5C 277.673,100.191 277.673,104.858 276.5,109.5C 273.915,111.053 271.248,112.553 268.5,114C 267.663,115.011 267.33,116.178 267.5,117.5C 265.255,119.361 262.588,120.361 259.5,120.5C 259.5,121.5 259.5,122.5 259.5,123.5C 259.167,123.5 258.833,123.5 258.5,123.5C 250.919,125.996 248.419,123.329 251,115.5C 252.202,113.942 253.368,112.275 254.5,110.5C 256.252,108.754 257.585,106.754 258.5,104.5C 259.725,103.848 260.392,102.681 260.5,101C 260.158,97.8641 259.158,95.0308 257.5,92.5C 253.458,92.4774 249.792,91.3107 246.5,89C 255.454,89.1032 264.121,90.6032 272.5,93.5 Z"/></g>
<g><path style="opacity:1" fill="#7a7a7a" d="M 133.5,114.5 C 134.833,115.167 136.167,115.833 137.5,116.5C 135.712,116.785 134.045,116.452 132.5,115.5C 132.624,114.893 132.957,114.56 133.5,114.5 Z"/></g>
<g><path style="opacity:1" fill="#692164" d="M 70.5,108.5 C 70.0075,110.819 69.0075,112.819 67.5,114.5C 56.209,116.977 46.5423,122.31 38.5,130.5C 37.3526,132.765 37.1859,135.098 38,137.5C 39.9364,139.254 41.7698,140.921 43.5,142.5C 38.8516,141.677 36.5183,138.844 36.5,134C 39.8665,123.915 37.8665,122.748 30.5,130.5C 28.4705,131.172 26.4705,131.838 24.5,132.5C 28.788,127.166 34.1214,123 40.5,120C 50.2153,115.304 60.2153,111.471 70.5,108.5 Z"/></g>
<g><path style="opacity:1" fill="#bd1849" d="M 276.5,109.5 C 272.103,115.23 266.769,119.897 260.5,123.5C 260.167,123.5 259.833,123.5 259.5,123.5C 259.5,122.5 259.5,121.5 259.5,120.5C 262.588,120.361 265.255,119.361 267.5,117.5C 267.33,116.178 267.663,115.011 268.5,114C 271.248,112.553 273.915,111.053 276.5,109.5 Z"/></g>
<g><path style="opacity:1" fill="#791837" d="M 235.5,116.5 C 236.338,116.842 236.672,117.508 236.5,118.5C 233.691,120.897 230.358,122.23 226.5,122.5C 228.858,120.871 231.524,119.705 234.5,119C 235.252,118.329 235.586,117.496 235.5,116.5 Z"/></g>
<g><path style="opacity:1" fill="#e2145d" d="M 254.5,110.5 C 253.368,112.275 252.202,113.942 251,115.5C 248.419,123.329 250.919,125.996 258.5,123.5C 252.167,127.396 245.5,130.729 238.5,133.5C 237.5,133.5 236.5,133.5 235.5,133.5C 230.988,134.046 226.655,135.046 222.5,136.5C 221.158,134.486 219.492,134.153 217.5,135.5C 216.068,135.267 215.568,134.6 216,133.5C 217.667,132.5 219,131.167 220,129.5C 221.44,131.046 223.273,131.879 225.5,132C 224.5,132.333 223.5,132.667 222.5,133C 224.913,133.484 227.246,133.15 229.5,132C 228.552,131.517 227.552,131.351 226.5,131.5C 226.452,128.708 227.785,126.875 230.5,126C 229.142,125.066 227.808,124.232 226.5,123.5C 226.5,123.167 226.5,122.833 226.5,122.5C 230.358,122.23 233.691,120.897 236.5,118.5C 241.484,116.674 246.151,114.341 250.5,111.5C 251.959,111.567 253.292,111.234 254.5,110.5 Z"/></g>
<g><path style="opacity:1" fill="#921848" d="M 226.5,122.5 C 226.5,122.833 226.5,123.167 226.5,123.5C 220.124,125.178 213.791,127.178 207.5,129.5C 204.518,129.963 201.518,130.296 198.5,130.5C 207.767,127.882 217.1,125.216 226.5,122.5 Z"/></g>
<g><path style="opacity:1" fill="#f6f6f6" d="M 253.5,129.5 C 252.254,148.818 242.587,161.984 224.5,169C 204.805,174.699 188.138,170.199 174.5,155.5C 174.577,154.25 175.244,153.417 176.5,153C 180.821,152.102 185.155,151.269 189.5,150.5C 193.374,151.435 197.04,152.935 200.5,155C 217.999,158.418 230.333,152.085 237.5,136C 242.968,134.097 248.301,131.93 253.5,129.5 Z"/></g>
<g><path style="opacity:1" fill="#0f0b0c" d="M 144.5,139.5 C 144.5,140.833 143.833,141.5 142.5,141.5C 135.841,141.954 129.174,142.287 122.5,142.5C 122.602,137.556 124.935,134.056 129.5,132C 136.701,130.267 141.701,132.767 144.5,139.5 Z"/></g>
<g><path style="opacity:1" fill="#db1264" d="M 226.5,123.5 C 227.808,124.232 229.142,125.066 230.5,126C 227.785,126.875 226.452,128.708 226.5,131.5C 227.552,131.351 228.552,131.517 229.5,132C 227.246,133.15 224.913,133.484 222.5,133C 223.5,132.667 224.5,132.333 225.5,132C 223.273,131.879 221.44,131.046 220,129.5C 219,131.167 217.667,132.5 216,133.5C 215.568,134.6 216.068,135.267 217.5,135.5C 219.492,134.153 221.158,134.486 222.5,136.5C 219.377,137.233 216.377,138.233 213.5,139.5C 211.407,139.514 209.574,138.848 208,137.5C 207.426,139.492 206.259,140.992 204.5,142C 200.572,143.325 196.572,143.658 192.5,143C 194.602,141.267 194.935,139.267 193.5,137C 194.357,136.311 195.023,135.478 195.5,134.5C 199.468,132.448 203.468,130.781 207.5,129.5C 213.791,127.178 220.124,125.178 226.5,123.5 Z"/></g>
<g><path style="opacity:1" fill="#4b0419" d="M 235.5,133.5 C 236.5,133.5 237.5,133.5 238.5,133.5C 236.491,135.065 234.157,136.065 231.5,136.5C 232.59,135.143 233.924,134.143 235.5,133.5 Z"/></g>
<g><path style="opacity:1" fill="#120809" d="M 258.5,123.5 C 258.833,123.5 259.167,123.5 259.5,123.5C 259.833,123.5 260.167,123.5 260.5,123.5C 259.152,125.48 257.152,126.647 254.5,127C 253.748,127.671 253.414,128.504 253.5,129.5C 248.301,131.93 242.968,134.097 237.5,136C 230.333,152.085 217.999,158.418 200.5,155C 197.04,152.935 193.374,151.435 189.5,150.5C 185.155,151.269 180.821,152.102 176.5,153C 175.244,153.417 174.577,154.25 174.5,155.5C 173.596,154.791 173.263,153.791 173.5,152.5C 174.5,151.833 175.5,151.167 176.5,150.5C 185.113,149.288 193.447,147.288 201.5,144.5C 207.265,143.442 212.932,142.109 218.5,140.5C 220.898,140.741 222.898,140.074 224.5,138.5C 226.599,137.388 228.933,136.721 231.5,136.5C 234.157,136.065 236.491,135.065 238.5,133.5C 245.5,130.729 252.167,127.396 258.5,123.5 Z"/></g>
<g><path style="opacity:1" fill="#c91766" d="M 207.5,129.5 C 203.468,130.781 199.468,132.448 195.5,134.5C 195.023,135.478 194.357,136.311 193.5,137C 194.935,139.267 194.602,141.267 192.5,143C 196.572,143.658 200.572,143.325 204.5,142C 206.259,140.992 207.426,139.492 208,137.5C 209.574,138.848 211.407,139.514 213.5,139.5C 216.377,138.233 219.377,137.233 222.5,136.5C 226.655,135.046 230.988,134.046 235.5,133.5C 233.924,134.143 232.59,135.143 231.5,136.5C 228.933,136.721 226.599,137.388 224.5,138.5C 222.102,138.259 220.102,138.926 218.5,140.5C 212.932,142.109 207.265,143.442 201.5,144.5C 197.094,144.647 192.761,145.314 188.5,146.5C 187.833,146.333 187.167,146.167 186.5,146C 188.312,144.373 188.479,142.873 187,141.5C 184.422,143.019 181.589,143.852 178.5,144C 181.308,144.019 183.641,145.019 185.5,147C 180.628,148.388 175.628,148.888 170.5,148.5C 170.337,146.143 170.503,143.81 171,141.5C 172.417,140.922 173.25,139.922 173.5,138.5C 175.746,137.79 178.08,137.29 180.5,137C 181.252,136.329 181.586,135.496 181.5,134.5C 181.5,134.167 181.5,133.833 181.5,133.5C 187.195,132.66 192.861,131.66 198.5,130.5C 201.518,130.296 204.518,129.963 207.5,129.5 Z"/></g>
<g><path style="opacity:1" fill="#989798" d="M 61.5,140.5 C 56.0557,139.892 51.0557,140.558 46.5,142.5C 46.1667,142.5 45.8333,142.5 45.5,142.5C 45.5,141.5 45.5,140.5 45.5,139.5C 51.0262,139.179 56.3595,139.512 61.5,140.5 Z"/></g>
<g><path style="opacity:1" fill="#4a051a" d="M 224.5,138.5 C 222.898,140.074 220.898,140.741 218.5,140.5C 220.102,138.926 222.102,138.259 224.5,138.5 Z"/></g>
<g><path style="opacity:1" fill="#f5edf3" d="M 61.5,140.5 C 61.5,142.167 61.5,143.833 61.5,145.5C 60.5,145.5 59.5,145.5 58.5,145.5C 54.2641,144.992 50.2641,143.992 46.5,142.5C 51.0557,140.558 56.0557,139.892 61.5,140.5 Z"/></g>
<g><path style="opacity:1" fill="#c0196a" d="M 173.5,138.5 C 173.25,139.922 172.417,140.922 171,141.5C 170.503,143.81 170.337,146.143 170.5,148.5C 175.628,148.888 180.628,148.388 185.5,147C 183.641,145.019 181.308,144.019 178.5,144C 181.589,143.852 184.422,143.019 187,141.5C 188.479,142.873 188.312,144.373 186.5,146C 187.167,146.167 187.833,146.333 188.5,146.5C 192.761,145.314 197.094,144.647 201.5,144.5C 193.447,147.288 185.113,149.288 176.5,150.5C 173.807,150.428 171.14,150.095 168.5,149.5C 162.54,152.181 156.373,152.847 150,151.5C 148.874,148.277 148.707,145.111 149.5,142C 157.419,140.186 165.419,139.019 173.5,138.5 Z"/></g>
<g><path style="opacity:1" fill="#7a217e" d="M 43.5,142.5 C 44.1667,142.5 44.8333,142.5 45.5,142.5C 45.8333,142.5 46.1667,142.5 46.5,142.5C 50.2641,143.992 54.2641,144.992 58.5,145.5C 58.5,145.833 58.5,146.167 58.5,146.5C 56.5446,147.447 56.2113,148.781 57.5,150.5C 55.3125,152.537 52.3125,154.37 48.5,156C 50.0581,156.21 51.3915,156.71 52.5,157.5C 47.8075,157.46 43.1408,157.127 38.5,156.5C 30.4666,155.742 24.2999,152.075 20,145.5C 18.3809,139.968 19.8809,135.634 24.5,132.5C 26.4705,131.838 28.4705,131.172 30.5,130.5C 37.8665,122.748 39.8665,123.915 36.5,134C 36.5183,138.844 38.8516,141.677 43.5,142.5 Z"/></g>
<g><path style="opacity:1" fill="#b2246b" d="M 181.5,134.5 C 181.586,135.496 181.252,136.329 180.5,137C 178.08,137.29 175.746,137.79 173.5,138.5C 165.419,139.019 157.419,140.186 149.5,142C 148.707,145.111 148.874,148.277 150,151.5C 156.373,152.847 162.54,152.181 168.5,149.5C 171.14,150.095 173.807,150.428 176.5,150.5C 175.5,151.167 174.5,151.833 173.5,152.5C 171.5,152.5 169.5,152.5 167.5,152.5C 163.018,152.034 159.018,153.034 155.5,155.5C 149.772,156.004 144.105,156.67 138.5,157.5C 133.833,157.5 129.167,157.5 124.5,157.5C 127.305,156.681 130.305,156.181 133.5,156C 133.167,155.667 132.833,155.333 132.5,155C 135.544,154.641 135.878,153.974 133.5,153C 134,152.833 134.5,152.667 135,152.5C 138.689,154.218 142.522,154.718 146.5,154C 144.624,152.983 142.624,152.149 140.5,151.5C 142.743,150.526 145.076,150.192 147.5,150.5C 147.982,145.93 146.648,144.93 143.5,147.5C 138.284,145.912 132.951,145.245 127.5,145.5C 132.578,144.461 137.578,143.128 142.5,141.5C 143.833,141.5 144.5,140.833 144.5,139.5C 150.135,140.781 155.468,140.114 160.5,137.5C 162.167,137.5 163.833,137.5 165.5,137.5C 170.833,136.5 176.167,135.5 181.5,134.5 Z"/></g>
<g><path style="opacity:1" fill="#93356c" d="M 142.5,141.5 C 137.578,143.128 132.578,144.461 127.5,145.5C 124.287,145.19 121.287,145.523 118.5,146.5C 109.167,146.5 99.8333,146.5 90.5,146.5C 88.5853,146.784 86.9187,146.451 85.5,145.5C 91.0262,145.821 96.3595,145.488 101.5,144.5C 103.167,144.5 104.833,144.5 106.5,144.5C 112.271,145.113 117.604,144.446 122.5,142.5C 129.174,142.287 135.841,141.954 142.5,141.5 Z"/></g>
<g><path style="opacity:1" fill="#b21c73" d="M 127.5,145.5 C 132.951,145.245 138.284,145.912 143.5,147.5C 146.648,144.93 147.982,145.93 147.5,150.5C 145.076,150.192 142.743,150.526 140.5,151.5C 142.624,152.149 144.624,152.983 146.5,154C 142.522,154.718 138.689,154.218 135,152.5C 134.5,152.667 134,152.833 133.5,153C 135.878,153.974 135.544,154.641 132.5,155C 132.833,155.333 133.167,155.667 133.5,156C 130.305,156.181 127.305,156.681 124.5,157.5C 124.167,157.5 123.833,157.5 123.5,157.5C 120.903,157.279 120.903,156.779 123.5,156C 121.021,155.121 119.021,153.621 117.5,151.5C 116.548,153.045 116.215,154.712 116.5,156.5C 115.5,156.5 114.5,156.5 113.5,156.5C 113.5,153.5 113.5,150.5 113.5,147.5C 115.415,147.784 117.081,147.451 118.5,146.5C 121.287,145.523 124.287,145.19 127.5,145.5 Z"/></g>
<g><path style="opacity:1" fill="#6e225d" d="M 58.5,146.5 C 58.5,146.167 58.5,145.833 58.5,145.5C 59.5,145.5 60.5,145.5 61.5,145.5C 69.5,145.5 77.5,145.5 85.5,145.5C 86.9187,146.451 88.5853,146.784 90.5,146.5C 87.3752,147.479 84.0419,147.813 80.5,147.5C 73.1507,147.451 65.8174,147.118 58.5,146.5 Z"/></g>
<g><path style="opacity:1" fill="#91217c" d="M 58.5,146.5 C 65.8174,147.118 73.1507,147.451 80.5,147.5C 80.6766,149.981 79.6766,151.814 77.5,153C 78.448,153.483 79.448,153.649 80.5,153.5C 80.5,154.5 80.5,155.5 80.5,156.5C 79.1266,156.343 77.7932,156.51 76.5,157C 80.3885,157.846 84.0551,159.013 87.5,160.5C 75.798,159.895 64.1313,158.895 52.5,157.5C 51.3915,156.71 50.0581,156.21 48.5,156C 52.3125,154.37 55.3125,152.537 57.5,150.5C 56.2113,148.781 56.5446,147.447 58.5,146.5 Z"/></g>
<g><path style="opacity:1" fill="#9e1f78" d="M 90.5,146.5 C 99.8333,146.5 109.167,146.5 118.5,146.5C 117.081,147.451 115.415,147.784 113.5,147.5C 113.5,150.5 113.5,153.5 113.5,156.5C 114.5,156.5 115.5,156.5 116.5,156.5C 116.215,154.712 116.548,153.045 117.5,151.5C 119.021,153.621 121.021,155.121 123.5,156C 120.903,156.779 120.903,157.279 123.5,157.5C 118.6,158.992 113.6,159.992 108.5,160.5C 101.5,160.5 94.5,160.5 87.5,160.5C 84.0551,159.013 80.3885,157.846 76.5,157C 77.7932,156.51 79.1266,156.343 80.5,156.5C 80.5,155.5 80.5,154.5 80.5,153.5C 79.448,153.649 78.448,153.483 77.5,153C 79.6766,151.814 80.6766,149.981 80.5,147.5C 84.0419,147.813 87.3752,147.479 90.5,146.5 Z"/></g>
<g><path style="opacity:1" fill="#601238" d="M 167.5,152.5 C 163.702,153.868 159.702,154.868 155.5,155.5C 159.018,153.034 163.018,152.034 167.5,152.5 Z"/></g>
<g><path style="opacity:1" fill="#6a1745" d="M 123.5,157.5 C 123.833,157.5 124.167,157.5 124.5,157.5C 129.167,157.5 133.833,157.5 138.5,157.5C 128.742,159.509 118.742,160.509 108.5,160.5C 113.6,159.992 118.6,158.992 123.5,157.5 Z"/></g>
<g><path style="opacity:1" fill="#6c215f" d="M 38.5,156.5 C 43.1408,157.127 47.8075,157.46 52.5,157.5C 64.1313,158.895 75.798,159.895 87.5,160.5C 94.5,160.5 101.5,160.5 108.5,160.5C 93.3389,161.661 78.0055,161.828 62.5,161C 54.1889,160.451 46.1889,158.951 38.5,156.5 Z"/></g>
<g><path style="opacity:1" fill="#f1f1f1" d="M 148.5,157.5 C 151.187,157.336 153.854,157.503 156.5,158C 148.393,168.593 137.727,172.259 124.5,169C 120.618,167.566 117.285,165.4 114.5,162.5C 126.069,161.474 137.402,159.807 148.5,157.5 Z"/></g>
<g><path style="opacity:1" fill="#efefef" d="M 53.5,162.5 C 66.4978,163.046 79.4978,163.712 92.5,164.5C 82.9164,170.648 72.583,172.148 61.5,169C 58.1413,167.513 55.4747,165.346 53.5,162.5 Z"/></g>
<g><path style="opacity:1" fill="#838383" d="M 135.5,181.5 C 133.219,181.077 131.552,181.744 130.5,183.5C 129.596,182.791 129.263,181.791 129.5,180.5C 131.735,180.205 133.735,180.539 135.5,181.5 Z"/></g>
<g><path style="opacity:1" fill="#eaeaea" d="M 95.5,180.5 C 103.507,180.334 111.507,180.5 119.5,181C 120.025,181.692 120.692,182.192 121.5,182.5C 122.664,189.142 122.831,195.808 122,202.5C 121.5,203 121,203.5 120.5,204C 111.814,204.832 103.147,204.665 94.5,203.5C 93.3699,196.55 93.2032,189.55 94,182.5C 94.7172,181.956 95.2172,181.289 95.5,180.5 Z"/></g>
<g><path style="opacity:1" fill="#a9a9a9" d="M 166.5,180.5 C 168.5,180.5 170.5,180.5 172.5,180.5C 172.5,188.5 172.5,196.5 172.5,204.5C 170.5,204.5 168.5,204.5 166.5,204.5C 166.5,196.5 166.5,188.5 166.5,180.5 Z"/></g>
<g><path style="opacity:1" fill="#fdfdfd" d="M 167.5,181.5 C 168.833,181.5 170.167,181.5 171.5,181.5C 171.5,188.833 171.5,196.167 171.5,203.5C 170.167,203.5 168.833,203.5 167.5,203.5C 167.5,196.167 167.5,188.833 167.5,181.5 Z"/></g>
<g><path style="opacity:1" fill="#ebebeb" d="M 185.5,180.5 C 192.589,180.116 199.589,180.616 206.5,182C 211.55,183.434 213.883,186.767 213.5,192C 213.952,197.66 211.619,201.66 206.5,204C 199.508,204.5 192.508,204.666 185.5,204.5C 185.5,196.5 185.5,188.5 185.5,180.5 Z"/></g>
<g><path style="opacity:1" fill="#020202" d="M 191.5,185.5 C 195.514,185.334 199.514,185.501 203.5,186C 204.931,186.465 206.097,187.299 207,188.5C 207.667,191.167 207.667,193.833 207,196.5C 205.871,198.141 204.371,199.141 202.5,199.5C 198.833,199.5 195.167,199.5 191.5,199.5C 191.5,194.833 191.5,190.167 191.5,185.5 Z"/></g>
<g><path style="opacity:1" fill="#eaeaea" d="M 130.5,183.5 C 131.552,181.744 133.219,181.077 135.5,181.5C 138.892,186.605 142.059,191.938 145,197.5C 147.579,192.008 150.412,186.675 153.5,181.5C 155.5,180.167 157.5,180.167 159.5,181.5C 155.04,188.918 150.707,196.418 146.5,204C 144.888,204.72 143.388,204.554 142,203.5C 138.408,196.643 134.574,189.976 130.5,183.5 Z"/></g>
<g><path style="opacity:1" fill="#acacac" d="M 55.5,181.5 C 54.1667,181.5 52.8333,181.5 51.5,181.5C 51.5,188.833 51.5,196.167 51.5,203.5C 52.5,203.5 53.5,203.5 54.5,203.5C 54.1725,198.456 54.5059,193.456 55.5,188.5C 56.1067,188.624 56.44,188.957 56.5,189.5C 55.5128,194.305 55.1795,199.305 55.5,204.5C 53.8333,204.5 52.1667,204.5 50.5,204.5C 50.5,196.5 50.5,188.5 50.5,180.5C 52.4147,180.216 54.0813,180.549 55.5,181.5 Z"/></g>
<g><path style="opacity:1" fill="#eaeaea" d="M 232.5,180.5 C 234.604,180.201 236.604,180.534 238.5,181.5C 242.454,189.245 246.788,196.745 251.5,204C 247.231,205.268 244.231,203.934 242.5,200C 237.5,199.333 232.5,199.333 227.5,200C 226.067,203.978 223.4,205.145 219.5,203.5C 224.098,195.968 228.432,188.302 232.5,180.5 Z"/></g>
<g><path style="opacity:1" fill="#1c1c1c" d="M 234.5,186.5 C 236.642,188.765 238.309,191.432 239.5,194.5C 236.5,195.833 233.5,195.833 230.5,194.5C 231.847,191.807 233.18,189.14 234.5,186.5 Z"/></g>
<g><path style="opacity:1" fill="#ececec" d="M 56.5,189.5 C 56.44,188.957 56.1067,188.624 55.5,188.5C 54.5059,193.456 54.1725,198.456 54.5,203.5C 53.5,203.5 52.5,203.5 51.5,203.5C 51.5,196.167 51.5,188.833 51.5,181.5C 52.8333,181.5 54.1667,181.5 55.5,181.5C 58.7683,186.107 62.4349,190.441 66.5,194.5C 69.8333,190.167 73.1667,185.833 76.5,181.5C 78.0453,180.548 79.712,180.215 81.5,180.5C 81.5,188.5 81.5,196.5 81.5,204.5C 79.8333,204.5 78.1667,204.5 76.5,204.5C 76.666,199.156 76.4994,193.823 76,188.5C 73.0246,193.138 69.6913,197.471 66,201.5C 62.1295,198.112 58.9629,194.112 56.5,189.5 Z"/></g>
<g><path style="opacity:1" fill="#6a6a6a" d="M 99.5,185.5 C 99.5,190.167 99.5,194.833 99.5,199.5C 105.167,199.5 110.833,199.5 116.5,199.5C 116.5,194.833 116.5,190.167 116.5,185.5C 117.487,190.305 117.821,195.305 117.5,200.5C 111.167,200.5 104.833,200.5 98.5,200.5C 98.1795,195.305 98.5128,190.305 99.5,185.5 Z"/></g>
<g><path style="opacity:1" fill="#000000" d="M 99.5,185.5 C 105.167,185.5 110.833,185.5 116.5,185.5C 116.5,190.167 116.5,194.833 116.5,199.5C 110.833,199.5 105.167,199.5 99.5,199.5C 99.5,194.833 99.5,190.167 99.5,185.5 Z"/></g>
<g><path style="opacity:1" fill="#565656" d="M 191.5,185.5 C 191.5,190.167 191.5,194.833 191.5,199.5C 195.167,199.5 198.833,199.5 202.5,199.5C 198.702,200.483 194.702,200.817 190.5,200.5C 190.179,195.305 190.513,190.305 191.5,185.5 Z"/></g>
</svg>
